{"title":"La piel que habito(The skin I live in)2011(Spanish Audio)","uid":6826743,"size":1509108698,"categoryP":"video","categoryS":"movies","magnet":"?xt=urn:btih:569e529ccbdc93c5f19bc26bb4d10879bb7850e8&amp;dn=La+piel+que+habito%28The+skin+I+live+in%292011%28Spanish+Audio%29&amp;tr=udp%3A%2F%2Ftracker.openbittorrent.com%3A80&amp;tr=udp%3A%2F%2Fopen.demonii.com%3A1337&amp;tr=udp%3A%2F%2Ftracker.coppersurfer.tk%3A6969&amp;tr=udp%3A%2F%2Fexodus.desync.com%3A6969","seeders":1,"leechers":0,"uploader":"wutup","files":-1,"time":1321598287,"description":"La piel que habito - TS-Screener HQ\n\nSinopsis:\nDesde que su mujer sufriera quemaduras en todo el cuerpo en un accidente de coche, el Doctor Robert Ledgard, eminente cirujano plÃƒÂ¡stico, se interesa por la creaciÃƒÂ³n de una nueva piel con la que hubiera podido salvarla. Doce aÃƒÂ±os despuÃƒÂ©s consigue cultivarla en su propio laboratorio, una piel sensible a las caricias, pero una autÃƒÂ©ntica coraza contra todas las agresiones, tanto externas como internas, de las que es vÃƒÂ­ctima nuestro mayor ÃƒÂ³rgano. Para lograrlo ha utilizado las posibilidades que proporciona la terapia celular. AdemÃƒÂ¡s de aÃƒÂ±os de estudio y experimentaciÃƒÂ³n, Robert necesitaba una cobaya humana, un cÃƒÂ³mplice y ningÃƒÂºn escrÃƒÂºpulo. Los escrÃƒÂºpulos nunca fueron un problema, no formaban parte de su carÃƒÂ¡cter. Marilia, la mujer que se ocupÃƒÂ³ de ÃƒÂ©l desde el dÃƒÂ­a que naciÃƒÂ³, es su cÃƒÂ³mplice mÃƒÂ¡s fiel, nunca le fallarÃƒÂ¡. Y respecto a la cobaya humana... Al cabo del aÃƒÂ±o desaparecen de sus casas decenas de jÃƒÂ³venes de ambos sexos, en muchos casos por voluntad propia. Uno de estos jÃƒÂ³venes acaba compartiendo con Robert y Marilia la esplÃƒÂ©ndida mansiÃƒÂ³n, El Cigarral. Y lo hace contra su voluntad...\n\nInfo:\nTitulo Original:  La piel que habito\nIdioma: EspaÃƒÂ±ol\nPaÃƒÂ­s: USA\nAÃƒÂ±o: 2011\nSubtitulos: no\nGÃƒÂ©nero: Terror\nTamaÃƒÂ±o: 1.41 gb\nCalidad Imagen: TS-Screener HQ\nFormato: .avi\n\nVideo\nID                               : 0\nFormat                           : MPEG-4 Visual\nFormat profile                   : Advanced Simple@L5\nFormat settings, BVOP            : 1\nFormat settings, QPel            : No\nFormat settings, GMC             : No warppoints\nFormat settings, Matrix          : Default (MPEG)\nCodec ID                         : XVID\nCodec ID/Hint                    : XviD\nDuration                         : 1h 52mn\nBit rate                         : 1 644 Kbps\nWidth                            : 720 pixels\nHeight                           : 360 pixels\nDisplay aspect ratio             : 2.000\nFrame rate                       : 25.000 fps\nColor space                      : YUV\nChroma subsampling               : 4:2:0\nBit depth                        : 8 bits\nScan type                        : Progressive\nCompression mode                 : Lossy\nBits/(Pixel*Frame)               : 0.254\nStream size                      : 1.30 GiB (92%)\nWriting library                  : XviD 1.2.1 (UTC 2008-12-04)\n\nAudio\nID                               : 1\nFormat                           : MPEG Audio\nCodec ID                         : 55\nCodec ID/Hint                    : MP3\nDuration                         : 1h 52mn\nBit rate                         : 128 Kbps\nChannel(s)                       : 2 channels\nSampling rate                    : 48.0 KHz\nCompression mode                 : Lossy\nStream size                      : 103 MiB (7%)\nAlignment                        : Split accross interleaves\nInterleave, duration             : 40 ms (1.00 video frame)\nInterleave, preload duration     : 504 ms\n","torrent":{"xt":"urn:btih:569e529ccbdc93c5f19bc26bb4d10879bb7850e8","amp;dn":"La+piel+que+habito%28The+skin+I+live+in%292011%28Spanish+Audio%29","amp;tr":["udp%3A%2F%2Ftracker.openbittorrent.com%3A80","udp%3A%2F%2Fopen.demonii.com%3A1337","udp%3A%2F%2Ftracker.coppersurfer.tk%3A6969","udp%3A%2F%2Fexodus.desync.com%3A6969"],"infoHash":"569e529ccbdc93c5f19bc26bb4d10879bb7850e8","infoHashBuffer":{"type":"Buffer","data":[86,158,82,156,203,220,147,197,241,155,194,107,180,209,8,121,187,120,80,232]},"announce":[],"urlList":[]}}